<svg width="14" height="5" viewBox="0 0 14 5" fill="none" xmlns="http://www.w3.org/2000/svg">
<path fill-rule="evenodd" clip-rule="evenodd" d="M7.22481 4.45141C7.15528 4.48625 7.07858 4.50439 7.00081 4.50439C6.92304 4.50439 6.84634 4.48625 6.77681 4.45141L0.77681 1.45141C0.717588 1.42231 0.664714 1.38177 0.621235 1.33213C0.577756 1.28249 0.544532 1.22474 0.523479 1.1622C0.502425 1.09966 0.493959 1.03358 0.498569 0.967751C0.503178 0.901925 0.520771 0.837663 0.550334 0.778669C0.579897 0.719675 0.620844 0.667116 0.670816 0.624023C0.720789 0.58093 0.778797 0.548155 0.841496 0.527586C0.904196 0.507018 0.970347 0.499063 1.03613 0.504182C1.10192 0.509301 1.16605 0.527393 1.22481 0.557412L7.00081 3.44441L12.7768 0.557412C12.8356 0.527393 12.8997 0.509301 12.9655 0.504182C13.0313 0.499063 13.0974 0.507018 13.1601 0.527586C13.2228 0.548155 13.2808 0.58093 13.3308 0.624023C13.3808 0.667116 13.4217 0.719675 13.4513 0.778669C13.4808 0.837663 13.4984 0.901925 13.5031 0.967751C13.5077 1.03358 13.4992 1.09966 13.4781 1.1622C13.4571 1.22474 13.4239 1.28249 13.3804 1.33213C13.3369 1.38177 13.284 1.42231 13.2248 1.45141L7.22481 4.45141V4.45141Z" fill="black"/>
</svg>
