<svg width="5" height="14" viewBox="0 0 5 14" fill="none" xmlns="http://www.w3.org/2000/svg">
<path fill-rule="evenodd" clip-rule="evenodd" d="M0.0529833 6.7275C0.0181418 6.65797 0 6.58127 0 6.5035C0 6.42572 0.0181418 6.34903 0.0529833 6.2795L3.05298 0.279495C3.08209 0.220274 3.12263 0.1674 3.17226 0.12392C3.2219 0.0804413 3.27965 0.0472173 3.34219 0.0261641C3.40473 0.00511082 3.47082 -0.00335507 3.53664 0.00125408C3.60247 0.00586323 3.66673 0.0234565 3.72573 0.0530195C3.78472 0.0825825 3.83728 0.12353 3.88037 0.173502C3.92346 0.223474 3.95624 0.281483 3.97681 0.344182C3.99738 0.406881 4.00533 0.473032 4.00021 0.53882C3.99509 0.604608 3.977 0.668732 3.94698 0.727495L1.05998 6.5035L3.94698 12.2795C3.977 12.3383 3.99509 12.4024 4.00021 12.4682C4.00533 12.534 3.99738 12.6001 3.97681 12.6628C3.95624 12.7255 3.92346 12.7835 3.88037 12.8335C3.83728 12.8835 3.78472 12.9244 3.72573 12.954C3.66673 12.9835 3.60247 13.0011 3.53664 13.0057C3.47082 13.0103 3.40473 13.0019 3.34219 12.9808C3.27965 12.9598 3.2219 12.9265 3.17226 12.8831C3.12263 12.8396 3.08209 12.7867 3.05298 12.7275L0.0529833 6.7275V6.7275Z" fill="black"/>
</svg>
