<svg width="5" height="14" viewBox="0 0 5 14" fill="none" xmlns="http://www.w3.org/2000/svg">
<path fill-rule="evenodd" clip-rule="evenodd" d="M3.94873 6.27946C3.98357 6.34899 4.00171 6.42569 4.00171 6.50346C4.00171 6.58123 3.98357 6.65793 3.94873 6.72746L0.948725 12.7275C0.91962 12.7867 0.879081 12.8396 0.829444 12.883C0.779807 12.9265 0.722055 12.9597 0.659517 12.9808C0.596979 13.0018 0.530891 13.0103 0.465065 13.0057C0.39924 13.0011 0.334977 12.9835 0.275983 12.9539C0.216989 12.9244 0.164431 12.8834 0.121337 12.8335C0.078244 12.7835 0.0454691 12.7255 0.0249009 12.6628C0.00433273 12.6001 -0.0036221 12.5339 0.00149679 12.4681C0.00661569 12.4023 0.0247071 12.3382 0.0547261 12.2795L2.94173 6.50346L0.0547261 0.727463C0.0247071 0.668699 0.00661569 0.604575 0.00149679 0.538787C-0.0036221 0.472999 0.00433273 0.406849 0.0249009 0.344149C0.0454691 0.28145 0.078244 0.223442 0.121337 0.17347C0.164431 0.123498 0.216989 0.0825497 0.275983 0.0529867C0.334977 0.0234237 0.39924 0.00583041 0.465065 0.00122126C0.530891 -0.00338789 0.596979 0.00507824 0.659517 0.0261315C0.722055 0.0471847 0.779807 0.0804087 0.829444 0.123888C0.879081 0.167367 0.91962 0.220241 0.948725 0.279463L3.94873 6.27946V6.27946Z" fill="black"/>
</svg>
