<svg width="14" height="5" viewBox="0 0 14 5" fill="none" xmlns="http://www.w3.org/2000/svg">
<path fill-rule="evenodd" clip-rule="evenodd" d="M6.77604 0.552983C6.84557 0.518142 6.92227 0.5 7.00004 0.5C7.07782 0.5 7.15451 0.518142 7.22404 0.552983L13.224 3.55298C13.2833 3.58209 13.3361 3.62263 13.3796 3.67226C13.4231 3.7219 13.4563 3.77965 13.4774 3.84219C13.4984 3.90473 13.5069 3.97082 13.5023 4.03664C13.4977 4.10247 13.4801 4.16673 13.4505 4.22573C13.421 4.28472 13.38 4.33728 13.33 4.38037C13.2801 4.42346 13.2221 4.45624 13.1594 4.47681C13.0967 4.49738 13.0305 4.50533 12.9647 4.50021C12.8989 4.49509 12.8348 4.477 12.776 4.44698L7.00004 1.55998L1.22404 4.44698C1.16528 4.477 1.10116 4.49509 1.03537 4.50021C0.969581 4.50533 0.903431 4.49738 0.840731 4.47681C0.778032 4.45624 0.720024 4.42346 0.670052 4.38037C0.62008 4.33728 0.579132 4.28472 0.549569 4.22573C0.520006 4.16673 0.502412 4.10247 0.497803 4.03664C0.493194 3.97082 0.50166 3.90473 0.522714 3.84219C0.543767 3.77965 0.576991 3.7219 0.62047 3.67226C0.663949 3.62263 0.716823 3.58209 0.776045 3.55298L6.77604 0.552983V0.552983Z" fill="black"/>
</svg>
